REM DIRINDEX 1\2,1\3,1\4,1\5
REM DIRNAME cjc004,folder01,folder02,folder03,folder04
TITLE ""
FILE "1Q_t_1729-1738.mp3" MP3
  TRACK 01 AUDIO
    TITLE "3:cjc004_6094"
    INDEX 01 00:00:00
  TRACK 02 AUDIO
    TITLE "0:"
    INDEX 01 00:01:22
  TRACK 03 AUDIO
    TITLE "4:cjc004_6095"
    INDEX 01 00:01:44
  TRACK 04 AUDIO
    TITLE "0:"
    INDEX 01 00:02:53
  TRACK 05 AUDIO
    TITLE "5:cjc004_6096"
    INDEX 01 00:03:08
  TRACK 06 AUDIO
    TITLE "0:"
    INDEX 01 00:07:29
  TRACK 07 AUDIO
    TITLE "3:cjc004_6097"
    INDEX 01 00:08:13
  TRACK 08 AUDIO
    TITLE "0:"
    INDEX 01 00:09:40
  TRACK 09 AUDIO
    TITLE "4:cjc004_6098"
    INDEX 01 00:09:69
  TRACK 10 AUDIO
    TITLE "0:"
    INDEX 01 00:11:07
  TRACK 11 AUDIO
    TITLE "5:cjc004_6099"
    INDEX 01 00:11:29
  TRACK 12 AUDIO
    TITLE "0:"
    INDEX 01 00:16:38
  TRACK 13 AUDIO
    TITLE "3:cjc004_6100"
    INDEX 01 00:17:20
  TRACK 14 AUDIO
    TITLE "0:"
    INDEX 01 00:18:25
  TRACK 15 AUDIO
    TITLE "4:cjc004_6101"
    INDEX 01 00:18:60
  TRACK 16 AUDIO
    TITLE "0:"
    INDEX 01 00:19:65
  TRACK 17 AUDIO
    TITLE "5:cjc004_6102"
    INDEX 01 00:20:18
  TRACK 18 AUDIO
    TITLE "0:"
    INDEX 01 00:25:35
  TRACK 19 AUDIO
    TITLE "3:cjc004_6103"
    INDEX 01 00:26:17
  TRACK 20 AUDIO
    TITLE "0:"
    INDEX 01 00:27:20
  TRACK 21 AUDIO
    TITLE "4:cjc004_6104"
    INDEX 01 00:27:51
  TRACK 22 AUDIO
    TITLE "0:"
    INDEX 01 00:28:62
  TRACK 23 AUDIO
    TITLE "5:cjc004_6105"
    INDEX 01 00:29:11
  TRACK 24 AUDIO
    TITLE "0:"
    INDEX 01 00:34:00
  TRACK 25 AUDIO
    TITLE "3:cjc004_6106"
    INDEX 01 00:34:53
  TRACK 26 AUDIO
    TITLE "0:"
    INDEX 01 00:36:11
  TRACK 27 AUDIO
    TITLE "4:cjc004_6107"
    INDEX 01 00:36:42
  TRACK 28 AUDIO
    TITLE "0:"
    INDEX 01 00:37:46
  TRACK 29 AUDIO
    TITLE "5:cjc004_6108"
    INDEX 01 00:37:73
  TRACK 30 AUDIO
    TITLE "0:"
    INDEX 01 00:42:41
  TRACK 31 AUDIO
    TITLE "3:cjc004_6109"
    INDEX 01 00:43:19
  TRACK 32 AUDIO
    TITLE "0:"
    INDEX 01 00:44:18
  TRACK 33 AUDIO
    TITLE "4:cjc004_6110"
    INDEX 01 00:44:46
  TRACK 34 AUDIO
    TITLE "0:"
    INDEX 01 00:45:59
  TRACK 35 AUDIO
    TITLE "5:cjc004_6111"
    INDEX 01 00:46:07
  TRACK 36 AUDIO
    TITLE "0:"
    INDEX 01 00:50:46
  TRACK 37 AUDIO
    TITLE "3:cjc004_6112"
    INDEX 01 00:51:24
  TRACK 38 AUDIO
    TITLE "0:"
    INDEX 01 00:52:39
  TRACK 39 AUDIO
    TITLE "4:cjc004_6113"
    INDEX 01 00:52:67
  TRACK 40 AUDIO
    TITLE "0:"
    INDEX 01 00:54:05
  TRACK 41 AUDIO
    TITLE "5:cjc004_6114"
    INDEX 01 00:54:27
  TRACK 42 AUDIO
    TITLE "0:"
    INDEX 01 00:59:02
  TRACK 43 AUDIO
    TITLE "3:cjc004_6115"
    INDEX 01 00:59:61
  TRACK 44 AUDIO
    TITLE "0:"
    INDEX 01 01:01:05
  TRACK 45 AUDIO
    TITLE "4:cjc004_6116"
    INDEX 01 01:01:34
  TRACK 46 AUDIO
    TITLE "0:"
    INDEX 01 01:02:55
  TRACK 47 AUDIO
    TITLE "5:cjc004_6117"
    INDEX 01 01:03:08
  TRACK 48 AUDIO
    TITLE "0:"
    INDEX 01 01:07:63
  TRACK 49 AUDIO
    TITLE "3:cjc004_6118"
    INDEX 01 01:08:40
  TRACK 50 AUDIO
    TITLE "0:"
    INDEX 01 01:09:71
  TRACK 51 AUDIO
    TITLE "4:cjc004_6119"
    INDEX 01 01:10:22
  TRACK 52 AUDIO
    TITLE "0:"
    INDEX 01 01:11:31
  TRACK 53 AUDIO
    TITLE "5:cjc004_6120"
    INDEX 01 01:11:54
  TRACK 54 AUDIO
    TITLE "0:"
    INDEX 01 01:15:62
  TRACK 55 AUDIO
    TITLE "3:cjc004_6121"
    INDEX 01 01:16:40
  TRACK 56 AUDIO
    TITLE "0:"
    INDEX 01 01:17:65
  TRACK 57 AUDIO
    TITLE "4:cjc004_6122"
    INDEX 01 01:18:19
  TRACK 58 AUDIO
    TITLE "0:"
    INDEX 01 01:19:50
  TRACK 59 AUDIO
    TITLE "5:cjc004_6123"
    INDEX 01 01:19:72
  TRACK 60 AUDIO
    TITLE "0:"
    INDEX 01 01:23:52
